<svg width="140" height="32" viewBox="0 0 140 32" fill="none" xmlns="http://www.w3.org/2000/svg">
<path d="M17.6367 15.3652V27H13.6992V12.207H17.3906L17.6367 15.3652ZM17.0625 19.084H15.9961C15.9961 17.9902 16.1374 17.0059 16.4199 16.1309C16.7025 15.2467 17.099 14.4948 17.6094 13.875C18.1198 13.2461 18.7259 12.7676 19.4277 12.4395C20.1387 12.1022 20.9316 11.9336 21.8066 11.9336C22.4993 11.9336 23.1328 12.0339 23.707 12.2344C24.2812 12.4349 24.7734 12.7539 25.1836 13.1914C25.6029 13.6289 25.9219 14.2077 26.1406 14.9277C26.3685 15.6478 26.4824 16.5273 26.4824 17.5664V27H22.5176V17.5527C22.5176 16.8965 22.4264 16.3861 22.2441 16.0215C22.0618 15.6569 21.793 15.4017 21.4375 15.2559C21.0911 15.1009 20.6628 15.0234 20.1523 15.0234C19.6237 15.0234 19.1634 15.1283 18.7715 15.3379C18.3887 15.5475 18.0697 15.8392 17.8145 16.2129C17.5684 16.5775 17.3815 17.0059 17.2539 17.498C17.1263 17.9902 17.0625 18.5189 17.0625 19.084ZM33.6328 12.207V27H29.6816V12.207H33.6328ZM29.4355 8.35156C29.4355 7.77734 29.6361 7.30339 30.0371 6.92969C30.4382 6.55599 30.9759 6.36914 31.6504 6.36914C32.3158 6.36914 32.849 6.55599 33.25 6.92969C33.6602 7.30339 33.8652 7.77734 33.8652 8.35156C33.8652 8.92578 33.6602 9.39974 33.25 9.77344C32.849 10.1471 32.3158 10.334 31.6504 10.334C30.9759 10.334 30.4382 10.1471 30.0371 9.77344C29.6361 9.39974 29.4355 8.92578 29.4355 8.35156ZM42.998 24.1973C43.4811 24.1973 43.9095 24.1061 44.2832 23.9238C44.6569 23.7324 44.9486 23.4681 45.1582 23.1309C45.377 22.7845 45.4909 22.3789 45.5 21.9141H49.2051C49.196 22.9531 48.918 23.8783 48.3711 24.6895C47.8242 25.4915 47.0905 26.125 46.1699 26.5898C45.2493 27.0456 44.2194 27.2734 43.0801 27.2734C41.9316 27.2734 40.929 27.082 40.0723 26.6992C39.2246 26.3164 38.5182 25.7878 37.9531 25.1133C37.388 24.4297 36.9642 23.6367 36.6816 22.7344C36.3991 21.8229 36.2578 20.8477 36.2578 19.8086V19.4121C36.2578 18.3639 36.3991 17.3887 36.6816 16.4863C36.9642 15.5749 37.388 14.7819 37.9531 14.1074C38.5182 13.4238 39.2246 12.8906 40.0723 12.5078C40.9199 12.125 41.9134 11.9336 43.0527 11.9336C44.265 11.9336 45.3268 12.166 46.2383 12.6309C47.1589 13.0957 47.8789 13.7611 48.3984 14.627C48.9271 15.4837 49.196 16.5 49.2051 17.6758H45.5C45.4909 17.1836 45.3861 16.737 45.1855 16.3359C44.9941 15.9349 44.7116 15.6159 44.3379 15.3789C43.9733 15.1328 43.5221 15.0098 42.9844 15.0098C42.4102 15.0098 41.9408 15.1328 41.5762 15.3789C41.2116 15.6159 40.929 15.944 40.7285 16.3633C40.528 16.7734 40.3867 17.2428 40.3047 17.7715C40.2318 18.291 40.1953 18.8379 40.1953 19.4121V19.8086C40.1953 20.3828 40.2318 20.9342 40.3047 21.4629C40.3776 21.9915 40.5143 22.4609 40.7148 22.8711C40.9245 23.2812 41.2116 23.6048 41.5762 23.8418C41.9408 24.0788 42.4147 24.1973 42.998 24.1973ZM58.2969 27.2734C57.1484 27.2734 56.1185 27.0911 55.207 26.7266C54.2956 26.3529 53.5208 25.8379 52.8828 25.1816C52.2539 24.5254 51.7708 23.7643 51.4336 22.8984C51.0964 22.0234 50.9277 21.0938 50.9277 20.1094V19.5625C50.9277 18.4414 51.0872 17.416 51.4062 16.4863C51.7253 15.5566 52.181 14.75 52.7734 14.0664C53.375 13.3828 54.1042 12.8587 54.9609 12.4941C55.8177 12.1204 56.7839 11.9336 57.8594 11.9336C58.9076 11.9336 59.8372 12.1068 60.6484 12.4531C61.4596 12.7995 62.1387 13.2917 62.6855 13.9297C63.2415 14.5677 63.6608 15.3333 63.9434 16.2266C64.2259 17.1107 64.3672 18.0951 64.3672 19.1797V20.8203H52.6094V18.1953H60.498V17.8945C60.498 17.3477 60.3978 16.86 60.1973 16.4316C60.0059 15.9941 59.7142 15.6478 59.3223 15.3926C58.9303 15.1374 58.429 15.0098 57.8184 15.0098C57.2988 15.0098 56.8522 15.1237 56.4785 15.3516C56.1048 15.5794 55.7995 15.8984 55.5625 16.3086C55.3346 16.7188 55.1615 17.2018 55.043 17.7578C54.9336 18.3047 54.8789 18.9062 54.8789 19.5625V20.1094C54.8789 20.7018 54.9609 21.2487 55.125 21.75C55.2982 22.2513 55.5397 22.6842 55.8496 23.0488C56.1686 23.4134 56.5514 23.696 56.998 23.8965C57.4538 24.097 57.9688 24.1973 58.543 24.1973C59.2539 24.1973 59.9147 24.0605 60.5254 23.7871C61.1452 23.5046 61.6784 23.0807 62.125 22.5156L64.0391 24.5938C63.7292 25.0404 63.3053 25.4688 62.7676 25.8789C62.2389 26.2891 61.6009 26.6263 60.8535 26.8906C60.1061 27.1458 59.2539 27.2734 58.2969 27.2734ZM74.6484 18.2637H69.5352L69.5078 15.4473H73.8008C74.5573 15.4473 75.1771 15.3516 75.6602 15.1602C76.1432 14.9596 76.5033 14.6725 76.7402 14.2988C76.9863 13.916 77.1094 13.4512 77.1094 12.9043C77.1094 12.2845 76.9909 11.7832 76.7539 11.4004C76.526 11.0176 76.166 10.7396 75.6738 10.5664C75.1908 10.3932 74.5664 10.3066 73.8008 10.3066H70.957V27H66.8555V7.09375H73.8008C74.9583 7.09375 75.9928 7.20312 76.9043 7.42188C77.8249 7.64062 78.6042 7.97331 79.2422 8.41992C79.8802 8.86654 80.3678 9.43164 80.7051 10.1152C81.0423 10.7897 81.2109 11.5918 81.2109 12.5215C81.2109 13.3418 81.0241 14.0983 80.6504 14.791C80.2858 15.4837 79.707 16.0488 78.9141 16.4863C78.1302 16.9238 77.1048 17.1654 75.8379 17.2109L74.6484 18.2637ZM74.4707 27H68.4141L70.0137 23.8008H74.4707C75.1908 23.8008 75.7786 23.6868 76.2344 23.459C76.6901 23.222 77.0273 22.903 77.2461 22.502C77.4648 22.1009 77.5742 21.6406 77.5742 21.1211C77.5742 20.5378 77.474 20.0319 77.2734 19.6035C77.082 19.1751 76.7721 18.847 76.3438 18.6191C75.9154 18.3822 75.3503 18.2637 74.6484 18.2637H70.6973L70.7246 15.4473H75.6465L76.5898 16.5547C77.8021 16.5365 78.7773 16.7507 79.5156 17.1973C80.263 17.6348 80.8053 18.2044 81.1426 18.9062C81.4889 19.6081 81.6621 20.36 81.6621 21.1621C81.6621 22.4382 81.3841 23.5137 80.8281 24.3887C80.2721 25.2546 79.4564 25.9062 78.3809 26.3438C77.3145 26.7812 76.0111 27 74.4707 27ZM88.6484 12.207V27H84.6973V12.207H88.6484ZM84.4512 8.35156C84.4512 7.77734 84.6517 7.30339 85.0527 6.92969C85.4538 6.55599 85.9915 6.36914 86.666 6.36914C87.3314 6.36914 87.8646 6.55599 88.2656 6.92969C88.6758 7.30339 88.8809 7.77734 88.8809 8.35156C88.8809 8.92578 88.6758 9.39974 88.2656 9.77344C87.8646 10.1471 87.3314 10.334 86.666 10.334C85.9915 10.334 85.4538 10.1471 85.0527 9.77344C84.6517 9.39974 84.4512 8.92578 84.4512 8.35156ZM95.8398 5.98633V27H91.9023V5.98633H95.8398ZM105.164 12.207L98.7383 19.5352L95.293 23.0215L93.8574 20.1777L96.5918 16.7051L100.434 12.207H105.164ZM101.076 27L96.7012 20.1641L99.4219 17.7852L105.615 27H101.076ZM113.395 27.2734C112.246 27.2734 111.216 27.0911 110.305 26.7266C109.393 26.3529 108.618 25.8379 107.98 25.1816C107.352 24.5254 106.868 23.7643 106.531 22.8984C106.194 22.0234 106.025 21.0938 106.025 20.1094V19.5625C106.025 18.4414 106.185 17.416 106.504 16.4863C106.823 15.5566 107.279 14.75 107.871 14.0664C108.473 13.3828 109.202 12.8587 110.059 12.4941C110.915 12.1204 111.882 11.9336 112.957 11.9336C114.005 11.9336 114.935 12.1068 115.746 12.4531C116.557 12.7995 117.236 13.2917 117.783 13.9297C118.339 14.5677 118.758 15.3333 119.041 16.2266C119.324 17.1107 119.465 18.0951 119.465 19.1797V20.8203H107.707V18.1953H115.596V17.8945C115.596 17.3477 115.495 16.86 115.295 16.4316C115.104 15.9941 114.812 15.6478 114.42 15.3926C114.028 15.1374 113.527 15.0098 112.916 15.0098C112.396 15.0098 111.95 15.1237 111.576 15.3516C111.202 15.5794 110.897 15.8984 110.66 16.3086C110.432 16.7188 110.259 17.2018 110.141 17.7578C110.031 18.3047 109.977 18.9062 109.977 19.5625V20.1094C109.977 20.7018 110.059 21.2487 110.223 21.75C110.396 22.2513 110.637 22.6842 110.947 23.0488C111.266 23.4134 111.649 23.696 112.096 23.8965C112.551 24.097 113.066 24.1973 113.641 24.1973C114.352 24.1973 115.012 24.0605 115.623 23.7871C116.243 23.5046 116.776 23.0807 117.223 22.5156L119.137 24.5938C118.827 25.0404 118.403 25.4688 117.865 25.8789C117.337 26.2891 116.699 26.6263 115.951 26.8906C115.204 27.1458 114.352 27.2734 113.395 27.2734ZM126.15 7.09375L125.699 20.916H122.418L121.953 7.09375H126.15ZM121.844 25.1953C121.844 24.612 122.044 24.1289 122.445 23.7461C122.855 23.3542 123.393 23.1582 124.059 23.1582C124.733 23.1582 125.271 23.3542 125.672 23.7461C126.073 24.1289 126.273 24.612 126.273 25.1953C126.273 25.7604 126.073 26.2389 125.672 26.6309C125.271 27.0228 124.733 27.2188 124.059 27.2188C123.393 27.2188 122.855 27.0228 122.445 26.6309C122.044 26.2389 121.844 25.7604 121.844 25.1953Z" fill="#F9F6F6"/>
</svg>
